<svg width="1920" height="1080" viewBox="0 0 1920 1080" fill="none" xmlns="http://www.w3.org/2000/svg">
<path d="M-41.8167 167.62C65.5167 124.453 274.683 58.82 252.683 141.62C225.183 245.12 16.1833 277.12 119.683 450.12C223.183 623.12 -71.8167 441.62 358.183 625.12C788.183 808.62 646.683 824.12 686.683 919.62C725.328 1011.88 693.036 1139.15 890.088 941.62M890.088 941.62C897 934.691 904.194 927.363 911.683 919.62C1132.68 691.12 1211.68 423.62 1245.68 613.12C1279.68 802.62 1204.68 763.12 1234.18 898.12C1263.68 1033.12 1339.18 1023.12 1470.68 955.62C1602.18 888.12 1764.68 991.62 1747.18 697.12C1729.68 402.62 1867 162 1634 120C1475.86 91.4932 1359.5 200.669 1265.68 334.62M890.088 941.62C1075.49 1112.62 1021.18 864.12 1142.18 571.62C1181.06 477.649 1221.27 398.024 1265.68 334.62M845.683 474.12C1188.18 243.12 1246.18 44.12 1023.18 167.62C963.64 200.596 936.001 244.872 920.354 291.12M890.918 898.12C900.282 774.053 982.163 686.755 788.183 645.12C583.183 601.12 346.683 898.12 191.183 995.62C35.6831 1093.12 -9.81668 1019.12 -154.817 898.12C-299.817 777.12 -123.317 770.62 -33.8167 689.12C55.6833 607.62 12.1833 756.62 326.683 645.12C641.183 533.62 302.683 523.62 527.683 141.62C752.683 -240.38 577.183 167.62 326.683 320.62C76.1833 473.62 276.683 474.12 650.683 523.62C880.809 554.078 884.339 459.028 904.95 352.62C908.892 332.269 913.458 311.503 920.354 291.12M890.918 898.12C890.386 905.168 890.088 912.336 890.088 919.62C890.088 1055.12 791.683 1094.62 951.183 1045.12C1110.68 995.62 1100.68 965.62 1214.18 870.12C1327.68 774.62 1594.68 593.12 1532.68 826.12C1470.68 1059.12 1241.68 1111.12 1369.18 1170.62C1496.68 1230.12 1522.68 1285.62 1616.18 1208.12C1709.68 1130.62 1729.18 1210.62 1838.68 995.62C1948.18 780.62 2059.18 726.62 1930.18 625.12C1801.18 523.62 1829.18 335.12 1592.18 474.12C1355.18 613.12 1071.15 970.12 890.918 898.12ZM491.683 555.62C768.183 320.62 780.025 108.12 920.354 291.12M920.354 635.12C828.183 806.62 743.758 957.62 961.183 764.62C1178.61 571.62 1188.18 545.62 1265.68 334.62M1492.68 108.12C1560.18 357.12 1437.38 623.771 1283.68 613.12C1129.99 602.469 854.184 625.12 1023.18 450.12C1192.18 275.12 1104.68 207.12 1299.68 231.12C1494.68 255.12 1652.18 305.12 1699.68 263.12C1747.18 221.12 1860.68 207.12 1763.18 127.62C1665.68 48.12 1620.18 30.12 1492.68 74.12C1365.18 118.12 1245.68 162.12 1245.68 108.12C1245.68 54.12 1122.18 -65.8981 1369.18 -7.37997C1397.6 -0.647261 1384.07 3.00068 1408.68 4.58815M980.26 26.1199C1181.27 -251.138 1219.93 53.9306 1811.18 98.1199C2480.18 148.12 1954.18 263.12 1966.18 352.62C1978.18 442.12 1876.68 426.12 1735.18 462.12C1593.68 498.12 1875.5 432.62 1868 167.62C1861.36 -66.8908 1597.97 16.7983 1408.68 4.58815M980.26 26.1199C953.828 62.5783 924.59 109.106 890.918 167.62C601.183 671.12 789.683 820.12 467.683 744.62C145.683 669.12 -591.317 764.62 67.6831 372.62C726.683 -19.3801 1020.84 -238.88 980.26 26.1199ZM686.683 543.62C621.183 764.62 599.683 707.12 625.183 788.62C650.683 870.12 668.683 755.12 664.683 884.12C660.683 1013.12 762.183 1074.62 589.183 1108.62C416.183 1142.62 390.183 1021.12 284.683 1146.62C179.183 1272.12 -81.3171 1279.62 284.683 1325.62C650.683 1371.62 970.684 1443.12 845.683 1170.62C720.683 898.12 782.683 1007.12 625.183 826.12C467.683 645.12 334.183 595.62 382.183 474.12C430.183 352.62 357.274 117.62 545.683 320.62C734.092 523.62 1053.18 701.12 613.183 657.12C173.183 613.12 -248.317 739.12 109.683 406.62C467.683 74.12 -13.3169 -170.88 643.183 66.1199C1299.68 303.12 1453.18 333.12 1492.68 215.62C1532.18 98.1199 1788.68 -76.9436 1408.68 4.58815" stroke="black" stroke-opacity="0.12"/>
</svg>
