<svg width="1920" height="720" viewBox="0 0 1920 720" fill="none" xmlns="http://www.w3.org/2000/svg">
<path d="M1904.23 247.054C1895.07 238.475 1885.49 230.269 1875.46 222.434C1869.65 217.913 1863.69 213.548 1857.58 209.339C1854.61 207.254 1851.51 205.278 1848.86 202.914C1847.8 202.034 1846.93 201.006 1846.25 199.86L1845.96 199.229L1845.71 198.674L1845.66 198.195L1845.64 197.849L1845.6 197.756L1845.56 197.664L1845.69 197.34L1846.04 196.681C1846.09 196.58 1846.14 196.477 1846.18 196.373L1846.13 196.566C1846.18 196.41 1846.26 196.259 1846.37 196.117L1846.87 195.481C1847.28 194.977 1847.7 194.487 1848.14 194.004C1848.59 193.521 1849.69 192.551 1848.6 193.497C1849.19 192.982 1849.77 192.42 1850.39 191.911C1852.81 189.894 1855.4 188.032 1858.12 186.345C1858.77 185.938 1859.4 185.555 1859.97 185.199L1860.09 185.145L1860.97 184.63C1862.35 183.834 1863.76 183.076 1865.17 182.318C1880.24 174.248 1895.07 165.585 1903.98 151.95C1912.57 138.705 1914.03 121.924 1903.48 112.291C1895.86 105.307 1883.22 104.796 1871.57 105.281C1859.92 105.765 1845.77 108.103 1835.88 103.797C1834.76 103.336 1833.77 102.7 1832.95 101.915L1832.29 101.304L1832.22 101.134L1831.75 100.489L1831.42 99.7491L1831.1 98.7952C1831.07 98.6984 1831.06 98.5944 1831.08 98.4884L1831.05 98.1108L1831.14 96.7471L1831.37 95.9124C1831.57 95.2613 1831.84 94.5986 1832.07 93.9539L1832.12 93.7613L1832.31 93.3952C1832.68 92.6323 1833.07 91.8758 1833.49 91.1257C1834.21 89.79 1835.06 88.5415 1835.86 87.2096L1836.43 86.3875C1836.98 85.6408 1837.52 84.9073 1838.07 84.1872C1842.94 77.8006 1848.57 71.7039 1853.91 65.5367L1871.66 45.026L1879.44 36.0444C1876.1 33.5505 1872.79 31.0152 1869.52 28.4383L1838.43 64.4574C1828.5 75.953 1818.65 88.802 1819.15 102.306C1819.22 105.776 1820.2 109.047 1822.03 111.885C1823.86 114.723 1826.49 117.058 1829.73 118.723C1835.2 121.546 1842.23 122.148 1849.02 122.172C1860.41 122.216 1872.35 120.238 1883.47 121.466L1884.64 121.637C1885.25 121.729 1885.86 121.846 1886.46 121.963C1887.73 122.232 1888.97 122.574 1890.16 122.988C1890.69 123.172 1891.24 123.386 1891.77 123.609L1892.83 124.095L1893.82 124.703C1894.37 125.068 1894.88 125.45 1895.37 125.857C1895.75 126.257 1896.16 126.635 1896.6 126.989L1897.07 127.595C1897.48 128.133 1897.78 128.74 1898.17 129.271L1898.61 130.226L1898.86 131.042L1899.11 131.581C1899.15 132.029 1899.13 132.504 1899.15 132.811L1899.17 133.378L1899.28 133.625C1899.32 134.444 1899.19 134.096 1899.16 133.679C1899.08 134.331 1899.02 135.496 1899 135.615L1898.97 135.894L1898.87 136.215C1898.68 136.937 1898.46 137.657 1898.22 138.376L1897.85 139.329C1897.5 140.068 1897.15 140.806 1896.74 141.532C1896.34 142.258 1895.91 142.897 1895.53 143.574C1896.19 142.456 1895.43 143.714 1895.11 144.159C1893.9 145.76 1892.58 147.307 1891.14 148.788L1890.71 149.247C1890.49 149.346 1890.23 149.708 1890.24 149.684C1889.56 150.33 1888.87 150.945 1888.15 151.554C1886.61 152.872 1885.03 154.138 1883.37 155.344C1880.41 157.52 1877.32 159.556 1874.12 161.438C1862.39 168.223 1848.89 173.874 1840.46 184.18C1835.61 190.073 1833.25 196.928 1833.87 203.364C1834.76 211.64 1840.79 216.968 1847.61 221.705C1859.8 230.141 1871.5 239.078 1882.59 248.554C1886.02 251.491 1889.38 254.518 1892.72 257.555C1896.42 254.099 1900.26 250.599 1904.23 247.054Z" fill="#E6A67B"/>
<path d="M393.641 116.409C391.893 115.278 389.863 114.664 387.785 114.637C385.706 114.61 383.662 115.172 381.89 116.257C357.78 131.377 339.961 155.321 330.923 182.265C305.72 181.072 281.621 194.394 263.365 210.74C252.071 220.758 242.965 233.006 236.614 246.717C233.489 246.602 230.361 246.663 227.243 246.898C225.785 247.874 224.123 248.504 222.384 248.741C220.645 248.978 218.875 248.815 217.207 248.265C183.978 254.791 155.424 281.001 144.98 313.665C135.869 311.981 126.489 312.559 117.66 315.351C94.5044 322.589 79.1391 343.271 74.7851 366.565C72.856 377.838 73.0861 389.379 75.4631 400.572C76.2054 404.44 82.6372 405.268 85.7001 404.708C89.4247 404.035 92.3459 401.644 91.5914 397.693C87.9352 378.755 90.4285 357.037 102.711 341.599C112.296 329.58 127.282 321.902 142.188 324.766C138.223 345.4 139.507 366.71 145.921 386.732C151.855 405.863 163.208 429.187 184.849 433.685C195.754 435.948 207.752 432.303 214.581 423.285C221.409 414.267 222.864 402.463 220.028 391.463C216.715 378.68 208.322 367.49 200.725 356.862C194.733 348.075 187.884 339.907 180.28 332.476C174.482 326.966 167.873 322.381 160.687 318.882C169.14 290.933 189.834 266.689 219.367 259.928C223.559 258.96 227.842 258.44 232.145 258.379C231.122 261.627 230.281 264.931 229.626 268.274C227.598 279.256 227.906 290.547 230.531 301.409C233.155 312.271 238.037 322.46 244.857 331.309C251.838 340.152 261.634 348.329 272.568 351.514C278.291 353.238 284.411 353.081 290.033 351.066C295.654 349.051 300.481 345.283 303.804 340.315C316.141 321.869 310.545 297.766 298.633 280.618C287.597 265.019 271.403 253.838 252.932 249.063C263.988 226.308 282.926 208.367 306.221 198.58C313.008 195.632 320.282 193.966 327.677 193.668C325.312 203.693 324.21 213.977 324.397 224.281C324.855 246.165 330.764 272.53 348.96 286.585C366.631 300.247 398.259 297.014 403.848 272.455C408.445 252.415 397.732 229.655 386.135 213.836C376.534 200.293 362.836 190.207 347.072 185.075C352.406 168.756 361.252 153.815 372.986 141.308C379.082 134.872 385.979 129.249 393.508 124.579C394.218 124.167 394.809 123.578 395.224 122.87C395.639 122.161 395.864 121.357 395.877 120.535C395.891 119.713 395.692 118.901 395.3 118.178C394.908 117.455 394.337 116.846 393.641 116.409ZM186.767 362.891C197.059 377.45 214.195 400.619 199.654 418.09C198.676 419.39 197.443 420.475 196.031 421.279C194.618 422.083 193.056 422.589 191.441 422.765C190.632 422.723 189.828 422.621 189.035 422.459C187.368 421.968 185.786 421.226 184.342 420.258C177.575 416.015 172.631 408.91 169.169 401.876C160.262 383.83 155.938 363.867 156.579 343.759C156.733 339.664 157.147 335.582 157.817 331.54C169.64 339.402 178.853 351.566 186.767 362.891ZM266.777 268.742C280.428 278.046 291.255 292.732 293.756 309.354C295.115 318.119 294.16 327.724 288.905 335.198C287.162 337.698 284.475 340.798 281.193 341.137C277.588 341.503 273.579 338.461 270.796 336.549C255.638 325.915 246.896 307.571 245.267 289.355C244.428 279.555 245.517 269.688 248.475 260.315C255.004 262.073 261.191 264.922 266.777 268.742ZM356.934 204.006C370.889 214.609 380.481 230.806 385.7 247.377C389.448 259.461 390.869 285.486 371.325 283.143C352.484 280.903 344.915 255.391 342.423 239.733C340.193 225.43 340.694 210.838 343.9 196.732C348.561 198.537 352.948 200.985 356.934 204.006Z" fill="#F4D4CB"/>
<path d="M1596.28 122.668C1591.32 128.48 1586.67 134.51 1582.51 140.871C1566.42 166.087 1558.1 195.635 1558.06 227.708C1558.04 243.737 1561.14 261.758 1573.45 278.249C1586.2 294.764 1604.48 308.698 1624.99 317.533C1648.61 327.811 1673.15 333.579 1696.34 334.308C1694.6 339.508 1693.55 345.011 1693.21 350.742C1692.44 365.704 1698.04 382.095 1712.83 396.171C1727.62 410.247 1747.59 419.942 1767.3 424.524C1804.65 433.191 1837.33 424.475 1866.23 415.155C1904.05 402.935 1938.22 386.092 1967.92 365.019C1976.77 358.756 1946.43 341.557 1938.78 347.002C1932.18 351.688 1925.36 356.199 1918.31 360.47C1889.71 377.908 1857.46 391.608 1822.23 401.283C1815.33 403.265 1808.19 404.906 1800.84 406.199C1797.51 406.75 1794.12 407.193 1790.68 407.528C1789.02 407.691 1787.25 407.798 1785.68 407.921L1784.15 408.009L1782.58 408.068C1776.37 408.219 1769.97 407.914 1763.47 407.156L1760.7 406.747L1758.7 406.357C1757.02 406.022 1755.35 405.639 1753.69 405.222C1753.31 405.139 1750.07 404.412 1752.74 404.99C1755.42 405.568 1752.33 404.75 1751.84 404.692C1750.35 404.197 1748.9 403.651 1747.44 403.122L1745.33 402.13C1744.96 401.956 1744.61 401.752 1744.27 401.521C1743.98 401.322 1743.68 401.146 1743.36 400.997L1744 401.365L1742.13 400.063C1741.75 399.887 1741.38 399.673 1741.03 399.426L1740.54 399.143L1740.88 399.341L1740.76 399.271L1739.2 398.009L1738.42 397.362C1737.91 396.775 1737.27 396.246 1736.74 395.692L1734.98 393.803L1733.86 392.507C1731.63 389.622 1729.81 386.614 1728.44 383.567C1728.44 383.567 1727.71 381.662 1727.74 381.724C1727.43 380.895 1727.18 380.078 1726.94 379.261C1726.45 377.602 1726.07 375.95 1725.8 374.314C1725.23 371.121 1725 367.983 1725.12 364.938C1725.56 358.359 1726.97 352.098 1729.33 346.278C1731.12 341.535 1733.3 336.955 1735.74 332.499C1738.92 332.088 1742.15 331.545 1745.27 330.945C1783.47 323.775 1815.33 306.772 1842.02 286.314C1848.96 280.973 1855.59 275.383 1861.97 269.587C1867.15 264.868 1872.26 259.574 1873.15 252.36C1874.3 243.049 1867.63 234.063 1856.62 227.285C1850.99 223.793 1844.83 221.284 1838.67 219.981C1832.51 218.677 1826.54 218.619 1821.3 219.811C1812.93 221.724 1805.62 225.774 1798.53 229.341C1790.62 233.331 1783.05 237.665 1775.81 242.342C1761.86 251.232 1749.21 261.331 1737.98 272.543C1726.5 284.097 1716.5 296.742 1708.09 310.358C1707.52 311.352 1706.94 312.347 1706.36 313.358C1702.11 313.869 1697.78 314.273 1693.38 314.523C1685.46 314.941 1677.29 314.792 1668.97 314.076C1666.79 313.877 1664.59 313.599 1662.41 313.352L1661.81 313.271L1661.15 313.162L1658.73 312.757C1654.76 312.082 1650.7 311.237 1646.55 310.222L1644.5 309.692L1642.11 309.01C1640.11 308.395 1638.13 307.73 1636.15 307.033C1634.16 306.51 1632.17 305.761 1630.26 304.808C1630.61 305.006 1634.1 306.502 1631.09 305.129C1630.15 304.72 1629.18 304.298 1628.26 303.855C1626.12 303.123 1624.04 302.098 1622.12 300.83C1624.4 302.147 1624.57 302.246 1622.98 301.326L1621.9 300.703L1619.79 299.485L1616.7 297.523L1615.86 297.042C1614.64 296.156 1613.42 295.094 1612.34 294.228L1610.7 292.829L1608.94 291.23C1607.52 289.828 1606.15 288.391 1604.87 286.931L1603.89 285.785C1603.89 285.785 1602.96 284.619 1602.75 284.314C1601.43 282.51 1600.21 280.677 1599.11 278.823C1594.94 271.533 1592.26 264.079 1591.2 256.836C1589 241.897 1589.27 227.439 1592 213.857C1596.51 186.35 1607.81 161.559 1625.3 140.774C1628.92 136.548 1622.95 131.176 1617.28 127.502C1613.4 125.071 1609.15 123.297 1604.88 122.329C1602.77 121.787 1597.61 121.099 1596.28 122.668ZM1788.72 284.533C1779.39 290.219 1769.41 295.26 1758.85 299.626C1765.17 292.402 1772.07 285.552 1779.46 279.146C1790.77 269.401 1803.25 260.648 1816.81 252.958C1823.61 249.12 1830.66 245.562 1837.96 242.285L1840.32 241.246C1840.02 241.769 1839.72 242.291 1839.58 242.93C1836.89 248.499 1831.69 252.352 1826.71 256.686C1815.08 266.872 1802.4 276.173 1788.72 284.533Z" fill="#C1D5EA"/>
<path d="M80.8318 85.67C83.1423 81.5813 84.6717 77.0983 85.3418 72.45C86.8018 63.34 86.2418 53.99 88.8818 45.06C91.1008 37.9024 94.7545 31.2717 99.62 25.5723C104.486 19.873 110.461 15.2244 117.182 11.91C117.082 10.76 116.972 9.62 116.912 8.48C116.752 7.04 116.582 5.6 116.412 4.16C115.802 3.64855 115.308 3.01297 114.963 2.29564C114.618 1.57831 114.43 0.795709 114.412 0C100.598 5.29984 89.4494 15.862 83.4118 29.37C81.6885 33.2064 80.4296 37.235 79.6618 41.37C78.9565 46.0502 78.4859 50.7628 78.2518 55.49C78.0291 60.2507 77.2676 64.9708 75.9818 69.56C74.5209 74.1339 72.0343 78.3136 68.7118 81.78C61.9218 88.96 52.6218 93.3 43.4218 96.49C33.8818 99.79 24.0218 102.16 14.2218 104.49C-4.94817 109.12 -24.6682 113.49 -41.9982 123.3C-57.9382 132.3 -72.2882 145.91 -77.9382 163.75C-78.4382 165.33 -78.8282 166.94 -79.1782 168.56C-79.7882 168.33 -80.1782 168.48 -79.9182 169.56C-79.7782 170.11 -79.6382 170.66 -79.5082 171.21C-79.3675 171.729 -79.18 172.235 -78.9482 172.72C-75.8548 172.367 -72.7582 172.033 -69.6582 171.72C-64.5082 156.83 -52.9382 144.84 -39.7682 136.32C-23.1982 125.6 -3.90817 120.53 15.0718 115.92C24.8218 113.56 34.6018 111.29 44.2118 108.42C53.6618 105.59 63.2118 102.12 71.1318 96.1C75.0112 93.2855 78.3058 89.743 80.8318 85.67Z" fill="#E47C98"/>
<path d="M261.296 655.097C260.607 655.594 259.865 656.018 259.111 656.426C258.924 656.561 257.648 657.099 258.206 656.881L257.624 657.116C257.164 657.3 256.699 657.475 256.227 657.642C255.962 657.735 254.478 658.14 255.394 657.923L254.522 658.132L253.261 658.401C252.861 658.479 252.472 658.538 252.075 658.603L251.431 658.685C250.471 658.773 249.516 658.833 248.559 658.857C248.039 658.9 247.517 658.902 246.997 658.861C248.15 659.041 246.997 658.861 246.493 658.83C244.541 658.698 242.598 658.452 240.674 658.095L239.72 657.883C239.272 657.774 238.824 657.666 238.378 657.544C237.341 657.268 236.317 656.959 235.299 656.608C234.282 656.256 233.415 655.944 232.494 655.573L231.643 655.213L231.355 655.087L231.075 654.956L230.253 654.551C221.749 650.314 214.899 643.431 208.869 636.214C202.227 628.268 196.462 619.64 190.089 611.537C185.081 605.174 179.447 598.968 172.041 595.382C164.03 591.505 154.248 590.865 146.638 596.057C142.587 598.818 139.967 602.655 137.419 606.748C136.382 608.505 135.221 610.187 133.946 611.78L133.391 612.378C133.008 612.753 132.584 613.071 132.203 613.432L131.822 613.707L131.57 613.888L131.25 614.008L131.21 614.037L130.732 614.11C130.594 614.122 130.456 614.143 130.321 614.173C129.895 614.147 129.453 614.046 129.046 613.995L128.834 613.975L128.677 613.928C128.178 613.782 127.676 613.651 127.195 613.48C126.714 613.309 126.369 613.188 125.966 613.023C125.563 612.857 125.343 612.707 125.035 612.535C120.956 610.298 118.03 606.651 115.497 602.83C112.597 598.449 110.119 593.8 107.282 589.386C104.444 584.972 101.331 580.535 98.0778 576.297C95.096 572.418 91.952 568.657 88.7039 565.007C83.8045 565.359 78.9031 565.561 74 565.611C77.1583 568.931 80.1962 572.375 83.1044 575.912C89.9385 584.431 96.1223 593.453 101.603 602.9C104.446 607.68 107.534 612.185 111.835 615.79C115.494 618.771 119.924 620.652 124.61 621.213C130.24 621.91 135.93 620.518 140.602 617.3C144.536 614.463 147.008 610.437 149.538 606.406C150.086 605.542 150.64 604.686 151.228 603.843C151.543 603.407 151.841 602.982 152.207 602.533L152.645 601.995L152.786 601.832L152.94 601.721C153.332 601.34 153.724 600.995 154.127 600.631L154.346 600.473L154.452 600.397L155.232 599.957C155.429 599.889 155.708 599.762 155.839 599.705L155.957 599.681C156.268 599.667 156.615 599.601 156.889 599.588L158.146 599.742L158.352 599.754L158.434 599.781C159.283 600.019 160.127 600.249 160.958 600.563C161.107 600.616 161.591 600.809 161.819 600.903L162.718 601.328C163.552 601.75 164.371 602.219 165.158 602.712C166.785 603.729 168.34 604.857 169.811 606.088C169.87 606.169 170.296 606.503 170.37 606.573C170.703 606.863 171.014 607.157 171.33 607.459C172.069 608.159 172.784 608.876 173.466 609.617C174.98 611.238 176.381 612.976 177.769 614.713C184.467 623.112 190.413 632.077 197.286 640.326C203.654 647.976 211.046 655.492 220.006 660.053C228.363 664.35 237.676 666.45 247.068 666.158C252.704 665.994 258.258 664.77 263.441 662.551L263.157 661.695C262.911 660.882 262.823 660.028 262.898 659.182C262.521 657.702 262.169 656.206 261.801 654.72L261.296 655.097Z" fill="#C19EC8"/>
<path d="M1899.76 544.864C1897.04 543.272 1894.24 541.794 1891.44 540.386C1880.48 535.053 1869.35 530.27 1858.15 526.077C1838.01 518.127 1817.85 510.224 1797.66 502.368C1779.8 495.361 1765.98 491.809 1751.54 495.271C1738.81 498.343 1729.07 505.834 1715.16 507.278C1705.57 511.529 1692.41 511.566 1678.55 507.382C1667.13 503.915 1656.14 497.492 1645.65 491.114C1638.96 487.033 1631.58 481.593 1624.16 478.552C1618.36 490.749 1613.1 503.355 1607.93 515.762C1627.4 527.697 1660.32 534.707 1680.54 538.854C1691.38 541.072 1702.45 542.12 1710.51 539.353C1725.66 534.149 1727.42 516.463 1743.84 512.745C1753.26 510.619 1766.07 513.661 1777.71 518.918C1801.3 529.594 1823.22 544.39 1846.54 555.325C1869.85 566.26 1890.46 575.995 1911.36 592.484L1907.01 554.291C1907.01 552.637 1906.38 550.817 1905.19 549.031C1903.74 547.39 1901.85 545.942 1899.76 544.864Z" fill="#C1D5EA"/>
<path d="M94.0284 214.494C106.723 209.235 112.752 194.681 107.493 181.986C102.235 169.291 87.681 163.263 74.9861 168.521C62.2912 173.78 56.2628 188.334 61.5212 201.029C66.7796 213.723 81.3335 219.752 94.0284 214.494Z" fill="#E6A67B"/>
<path d="M1676.03 383.494C1688.72 378.235 1694.75 363.681 1689.49 350.986C1684.23 338.291 1669.68 332.263 1656.99 337.521C1644.29 342.78 1638.26 357.334 1643.52 370.029C1648.78 382.723 1663.33 388.752 1676.03 383.494Z" fill="#E6A67B"/>
<path d="M104.366 520.467C102.865 519.244 101.687 517.672 100.933 515.889C100.18 514.106 99.8756 512.165 100.046 510.237C100.203 508.249 100.973 506.359 102.25 504.827C103.527 503.295 105.249 502.198 107.176 501.687C108.623 501.343 110.133 501.37 111.566 501.767C111.551 499.535 112.124 497.338 113.226 495.397C114.098 493.906 115.337 492.663 116.826 491.787C118.228 490.413 120.007 489.487 121.936 489.127C126.146 488.377 130.436 491.047 132.356 494.727C134.436 498.727 134.446 503.267 134.126 507.657C133.734 513.011 132.786 518.309 131.296 523.467C131.11 524.069 130.729 524.593 130.213 524.955C129.697 525.317 129.076 525.497 128.446 525.467C124.216 525.357 119.916 525.467 115.706 524.917C111.646 524.397 107.506 523.167 104.366 520.467Z" fill="#E47C98"/>
<path d="M1820.48 444.887C1820.84 442.984 1821.66 441.197 1822.86 439.683C1824.07 438.168 1825.63 436.972 1827.4 436.199C1829.22 435.386 1831.25 435.158 1833.21 435.547C1835.16 435.936 1836.95 436.923 1838.32 438.371C1839.31 439.477 1840.01 440.816 1840.35 442.264C1842.3 441.183 1844.51 440.635 1846.74 440.674C1848.46 440.727 1850.15 441.221 1851.63 442.109C1853.51 442.683 1855.17 443.802 1856.41 445.324C1859.08 448.662 1858.79 453.707 1856.48 457.153C1853.96 460.893 1849.98 463.074 1845.97 464.893C1841.08 467.11 1835.97 468.812 1830.73 469.971C1830.11 470.096 1829.47 470.012 1828.91 469.732C1828.34 469.452 1827.89 468.992 1827.61 468.425C1825.68 464.657 1823.53 460.934 1822 456.974C1820.51 453.16 1819.61 448.936 1820.48 444.887Z" fill="#E47C98"/>
</svg>
