<svg width="1862" height="382" viewBox="0 0 1862 382" fill="none" xmlns="http://www.w3.org/2000/svg">
<path d="M212.73 101.87L285.56 274.57L517.32 101.87" stroke="black" stroke-width="30" stroke-miterlimit="10"/>
<path d="M711.191 226.55C701.229 272.525 672.494 295.513 624.986 295.513C595.868 295.513 573.008 286.446 556.406 268.311C540.059 250.176 531.886 225.017 531.886 192.834C531.886 160.907 540.315 135.109 557.172 115.442C574.285 95.5193 596.507 85.558 623.837 85.558C654.232 85.558 676.709 95.9025 691.268 116.591C706.082 137.025 713.489 162.95 713.489 194.367V198.964H564.835L564.452 201.263C564.452 222.208 569.943 238.682 580.926 250.687C591.909 262.692 606.979 268.694 626.136 268.694C640.439 268.694 651.678 265.374 659.851 258.733C668.28 252.092 674.793 241.364 679.391 226.55H711.191ZM679.774 172.528C678.241 153.627 672.494 138.941 662.533 128.469C652.572 117.741 639.418 112.377 623.071 112.377C607.235 112.377 594.081 117.741 583.608 128.469C573.136 139.196 566.878 153.883 564.835 172.528H679.774Z" fill="black"/>
<path d="M769.27 297.91L768.94 106.8L1115.93 278.89L1115.91 101.87" stroke="black" stroke-width="30" stroke-miterlimit="10"/>
<path d="M1253.2 128.699V151.586H1219.53V250.001C1219.53 255.45 1219.53 259.047 1219.53 260.791C1219.74 262.534 1220.4 264.932 1221.49 267.984C1222.58 270.817 1224.43 272.67 1227.05 273.542C1229.66 274.414 1233.37 274.85 1238.16 274.85C1242.3 274.85 1247.32 274.523 1253.2 273.869V297.737C1245.36 298.609 1238.27 299.045 1231.95 299.045C1224.1 299.045 1217.56 298.173 1212.33 296.429C1207.1 294.685 1203.07 292.724 1200.24 290.544C1197.62 288.364 1195.66 284.55 1194.35 279.1C1193.04 273.433 1192.28 268.747 1192.06 265.041C1191.84 261.118 1191.74 254.687 1191.74 245.75C1191.74 245.097 1191.74 244.661 1191.74 244.443C1191.74 244.007 1191.74 243.462 1191.74 242.808C1191.74 242.154 1191.74 241.609 1191.74 241.173V151.586H1163.29V128.699H1191.74V78.6739H1219.53V128.699H1253.2Z" fill="black"/>
<path d="M193.481 226.98C183.519 272.956 154.785 295.943 107.276 295.943C78.1585 295.943 55.2984 286.876 38.6961 268.741C22.3493 250.606 14.1758 225.447 14.1758 193.265C14.1758 161.337 22.6047 135.54 39.4624 115.872C56.5755 95.9495 78.7971 85.9881 106.127 85.9881C136.522 85.9881 158.999 96.3326 173.558 117.022C188.372 137.455 195.779 163.38 195.779 194.797V199.395H47.125L46.7419 201.693C46.7419 222.638 52.2334 239.112 63.2165 251.117C74.1995 263.122 89.2693 269.124 108.426 269.124C122.729 269.124 133.968 265.804 142.141 259.163C150.57 252.522 157.083 241.794 161.681 226.98H193.481ZM162.064 172.959C160.531 154.058 154.785 139.371 144.823 128.899C134.862 118.171 121.708 112.807 105.361 112.807C89.5247 112.807 76.3706 118.171 65.8984 128.899C55.4261 139.626 49.1684 154.313 47.125 172.959H162.064Z" fill="black"/>
<path d="M1481.21 66.6845V100.688H1453.09V66.6845H1481.21ZM1481.21 130.769V299.48H1453.09V130.769H1481.21ZM1834.21 66.6845V137.962L1826.04 241.608H1811L1803.48 137.962V66.6845H1834.21ZM1835.85 266.457V299.48H1801.51V266.457H1835.85Z" fill="black"/>
<path d="M1559.81 71.6902V258.48C1559.81 258.48 1558.4 283.13 1602.7 283.13H1743.09" stroke="black" stroke-width="30" stroke-miterlimit="10"/>
<path d="M1515 130H1604.91" stroke="black" stroke-width="23" stroke-miterlimit="10"/>
</svg>
