<svg width="20" height="20" viewBox="0 0 20 20" fill="none" xmlns="http://www.w3.org/2000/svg">
<path d="M1.21124 13.2984L0.029571 18.3983C-0.0111927 18.5847 -0.00979525 18.7779 0.033661 18.9637C0.0771172 19.1495 0.161534 19.3233 0.280746 19.4723C0.399957 19.6213 0.550952 19.7418 0.722698 19.825C0.894445 19.9082 1.08261 19.9519 1.27343 19.9531C1.36235 19.9621 1.45195 19.9621 1.54086 19.9531L6.67179 18.7714L16.5232 8.95735L11.0253 3.47192L1.21124 13.2984Z" fill="white"/>
<path d="M19.6201 4.04416L15.9507 0.374768C15.7095 0.134743 15.383 0 15.0427 0C14.7024 0 14.3759 0.134743 14.1347 0.374768L12.0947 2.4147L17.5864 7.90635L19.6263 5.86642C19.7457 5.74643 19.8402 5.60409 19.9045 5.44753C19.9689 5.29096 20.0017 5.12325 20.0011 4.954C20.0005 4.78475 19.9666 4.61727 19.9012 4.46114C19.8358 4.30502 19.7403 4.16333 19.6201 4.04416Z" fill="white"/>
</svg>
